<svg width="48" height="48" fill="none" xmlns="http://www.w3.org/2000/svg"><circle cx="24" cy="24" r="24" fill="#4BE476"/><path d="M24.878 20.131a3.811 3.811 0 0 0-2.273.486 3.87 3.87 0 0 0-1.581 1.72 3.926 3.926 0 0 0 .756 4.412 3.832 3.832 0 0 0 2.063 1.082 3.809 3.809 0 0 0 2.302-.317 3.863 3.863 0 0 0 1.702-1.598 3.914 3.914 0 0 0-.629-4.663 3.836 3.836 0 0 0-2.34-1.122ZM34.138 24a9.477 9.477 0 0 1-.092 1.263l2.717 2.154a.658.658 0 0 1 .147.835l-2.57 4.496a.652.652 0 0 1-.79.279l-2.698-1.099a.959.959 0 0 0-.911.107 9.87 9.87 0 0 1-1.295.761.96.96 0 0 0-.53.738l-.404 2.909a.675.675 0 0 1-.222.395.662.662 0 0 1-.42.162h-5.14a.664.664 0 0 1-.642-.539l-.404-2.905a.983.983 0 0 0-.541-.742 9.41 9.41 0 0 1-1.29-.764.956.956 0 0 0-.908-.104l-2.697 1.098a.643.643 0 0 1-.79-.278l-2.57-4.495a.662.662 0 0 1 .147-.836l2.296-1.822a.975.975 0 0 0 .36-.855 8.352 8.352 0 0 1 0-1.51.983.983 0 0 0-.364-.847l-2.295-1.822a.658.658 0 0 1-.142-.831l2.57-4.496a.652.652 0 0 1 .79-.279l2.698 1.099a.959.959 0 0 0 .911-.106 9.863 9.863 0 0 1 1.295-.762.96.96 0 0 0 .53-.738l.404-2.909a.675.675 0 0 1 .222-.395.662.662 0 0 1 .42-.162h5.14a.664.664 0 0 1 .642.539l.404 2.905a.983.983 0 0 0 .541.742c.45.22.88.475 1.29.764a.956.956 0 0 0 .908.104l2.697-1.098a.643.643 0 0 1 .79.278l2.57 4.495a.662.662 0 0 1-.147.836l-2.296 1.822a.974.974 0 0 0-.364.855c.02.252.033.505.033.758Z" fill="#353535"/></svg>